# xmcd
#
# Track frame offsets:
#	150
#	13529
#	27112
#	43193
#	57186
#	70113
#	85532
#	100211
#	116431
#	131532
#
# Disc length: 1960 seconds
#
# Revision: 0
# Processed by: cddbd v1.5.2PL0 Copyright (c) Steve Scherf et al.
# Submitted via: EasyCDDAExtractor 16.0.6.1
#
DISCID=7507a60a
DTITLE=Παγιουμτζής Στράτος-Ζαμπέτας Γιώργος - Να μάς ζήσουν τα μπουζούκια
DYEAR=2005
DGENRE=Ρεμπέτικη
TTITLE0=Παγιουμτζής Στράτος - Ξημερώματα στην στράτα [Γ. Ζαμπέτα-Χ. Βασιλειάδη
TTITLE0=]
TTITLE1=Παγιουμτζής Στράτος - Το λιμάνι του Πειραιά [Ε. Ναουμίδη-Χ. Βασιλειάδη
TTITLE1=]
TTITLE2=Παγιουμτζής Στράτος - Το μινόρε του Στράτου [Σ. Παγιουμτζή]
TTITLE3=Παγιουμτζής Στράτος - Καπελά καταραμένε [Μ. Γαβριήλ]
TTITLE4=Παγιουμτζής Στράτος-Ζαμπέτας Γιώργος - Μαννούλα μου, μάννα [Μ. Βαμβακά
TTITLE4=ρη]
TTITLE5=Παγιουμτζής Στράτος - Στης Πειραϊκής τα βράχια [Σ. Παγιουμτζή-Χ. Βασιλ
TTITLE5=ειάδη]
TTITLE6=Παγιουμτζής Στράτος-Ζαμπέτας Γιώργος - Πλανεύτρα της αγάπης [Δ. Γκόγκο
TTITLE6=υ Μπαγιαντέρα]
TTITLE7=Παγιουμτζής Στράτος - Τρεις μάγκες, τρεις γεροντόμαγκες [Σ. Ξαρχάκου-Χ
TTITLE7=ρ. Στίππα]
TTITLE8=Παγιουμτζής Στράτος - Το Χάρο τον αντάμωσαν [Π. Τούντα, διασκ. Ζαμπέτα
TTITLE8=Βασιλειάδη]
TTITLE9=Παγιουμτζής Στράτος-Ζαμπέτας Γιώργος - Να στερέψουν τα ποτάμια [Σ. Παγ
TTITLE9=ιουμτζή]
EXTD=
EXTT0=
EXTT1=
EXTT2=
EXTT3=
EXTT4=
EXTT5=
EXTT6=
EXTT7=
EXTT8=
EXTT9=
PLAYORDER=
